<svg xmlns="http://www.w3.org/2000/svg" viewBox="0 0 959.54 959.55" fill="none" stroke="#dc2626" stroke-linejoin="round" stroke-width="90" xmlns:v="https://vecta.io/nano"><path d="M134.18 691.59C67.29 747.78 45 914.55 45 914.55s166.77-22.3 222.96-89.18c31.66-37.46 31.21-94.98-4.01-129.76-35.89-34.26-91.82-35.99-129.76-4.01zm334.44-66.89L334.85 490.93c23.73-61.56 53.61-120.57 89.18-176.14C529.67 145.88 715.31 43.78 914.54 45.01c0 121.29-34.78 334.44-267.55 490.51a996.2 996.2 0 0 1-178.37 89.18z"/><path d="M334.85 490.93H111.89s24.53-135.11 89.18-178.37c72.24-48.16 222.96 0 222.96 0m44.59 312.14v222.96s135.11-24.53 178.37-89.18c48.16-72.24 0-222.96 0-222.96" stroke-linecap="round"/></svg>